<svg width="8" height="5" viewBox="0 0 8 5" fill="none" xmlns="http://www.w3.org/2000/svg">
<path d="M3.99997 2.79999L6.73597 0.287189C6.84008 0.184107 6.98067 0.126282 7.12717 0.126282C7.27368 0.126282 7.41427 0.184107 7.51837 0.287189C7.56977 0.337807 7.61059 0.398144 7.63845 0.464687C7.66632 0.531229 7.68066 0.602649 7.68066 0.674789C7.68066 0.746929 7.66632 0.818348 7.63845 0.884891C7.61059 0.951434 7.56977 1.01177 7.51837 1.06239L4.39197 4.12639C4.28763 4.22933 4.14695 4.28704 4.00037 4.28704C3.8538 4.28704 3.71312 4.22933 3.60877 4.12639L0.482375 1.06239C0.430975 1.01177 0.390157 0.951434 0.362296 0.884891C0.334434 0.818348 0.320085 0.746929 0.320085 0.674789C0.320085 0.602649 0.334434 0.531229 0.362296 0.464687C0.390157 0.398144 0.430975 0.337807 0.482375 0.287189C0.586482 0.184107 0.727068 0.126282 0.873575 0.126282C1.02008 0.126282 1.16067 0.184107 1.26477 0.287189L3.99997 2.79999Z" fill="black"/>
</svg>
