<svg width="32" height="32" viewBox="0 0 32 32" fill="none" xmlns="http://www.w3.org/2000/svg">
<path d="M16 32C14.917 32.0002 13.8366 31.8913 12.7754 31.6749C10.7289 31.2557 8.78487 30.4377 7.05437 29.2674C4.48191 27.5308 2.46826 25.0855 1.25738 22.2278C0.848231 21.2598 0.535938 20.2536 0.325069 19.2241C-0.108356 17.0962 -0.108356 14.9028 0.325069 12.7749C0.74423 10.7285 1.5622 8.78469 2.73232 7.0543C4.46889 4.48186 6.91422 2.46823 9.77202 1.25737C10.74 0.848219 11.7462 0.535929 12.7757 0.325065C14.9036 -0.108355 17.097 -0.108355 19.2249 0.325065C21.2714 0.744222 23.2152 1.56219 24.9456 2.73229C27.5181 4.46885 29.5317 6.91415 30.7426 9.77192C31.1518 10.7399 31.4641 11.7461 31.6749 12.7756C32.1084 14.9035 32.1084 17.0969 31.6749 19.2247C31.2558 21.2711 30.4378 23.215 29.2677 24.9454C27.5311 27.5178 25.0858 29.5314 22.228 30.7423C21.26 31.1515 20.2538 31.4637 19.2243 31.6746C18.1632 31.8911 17.083 32.0001 16 32ZM11.3554 13.614V16.7934H14.1003V24.9495H17.3829V16.7934H20.1195L20.5301 13.614H17.3829V11.5843C17.3829 11.0508 17.4731 10.7058 17.6754 10.4655C17.8033 10.318 17.9694 10.2086 18.1554 10.1493C18.4151 10.0673 18.6867 10.0293 18.9589 10.0369L20.6412 10.0362V7.19248C19.8266 7.10741 19.0081 7.06585 18.1891 7.06797C16.9717 7.06797 15.95 7.44165 15.2346 8.14871C14.8626 8.52096 14.5771 8.9705 14.3982 9.46545C14.1928 10.0443 14.0921 10.655 14.1007 11.2691V13.6136L11.3554 13.614Z" fill="#FFFFFF"/>
</svg>
