<svg width="32" height="32" viewBox="0 0 32 32" fill="none" xmlns="http://www.w3.org/2000/svg">
<path d="M16 32C14.917 32.0002 13.8366 31.8913 12.7754 31.6749C10.7289 31.2557 8.78487 30.4377 7.05437 29.2674C4.48191 27.5308 2.46826 25.0855 1.25738 22.2278C0.848231 21.2598 0.535938 20.2536 0.325069 19.2241C-0.108356 17.0962 -0.108356 14.9028 0.325069 12.7749C0.74423 10.7285 1.5622 8.78469 2.73232 7.0543C4.46889 4.48186 6.91422 2.46823 9.77202 1.25737C10.74 0.848219 11.7462 0.535929 12.7757 0.325065C14.9036 -0.108355 17.097 -0.108355 19.2249 0.325065C21.2714 0.744222 23.2152 1.56219 24.9456 2.73229C27.5181 4.46885 29.5317 6.91415 30.7426 9.77192C31.1518 10.7399 31.4641 11.7461 31.6749 12.7756C32.1084 14.9035 32.1084 17.0969 31.6749 19.2247C31.2558 21.2711 30.4378 23.215 29.2677 24.9454C27.5311 27.5178 25.0858 29.5314 22.228 30.7423C21.26 31.1515 20.2538 31.4637 19.2243 31.6746C18.1632 31.8911 17.083 32.0001 16 32ZM18.9993 15.5915C19.2153 15.5891 19.4307 15.6162 19.6393 15.6721C19.812 15.7192 19.9755 15.7951 20.1229 15.8965C20.2573 15.9907 20.3752 16.1064 20.472 16.2389C20.5689 16.3731 20.6482 16.5191 20.708 16.6734C20.8313 17.0083 20.906 17.3591 20.9297 17.7151C20.9618 18.074 20.9645 18.4399 20.9645 18.8145V24.7401H24.7359V24.7393H24.7405V18.0534C24.7514 17.2883 24.6946 16.5238 24.5707 15.7687C24.4363 15.0247 24.2203 14.4238 23.9104 13.9316C23.5798 13.3987 23.1012 12.9735 22.5332 12.7077C22.2055 12.5553 21.86 12.4445 21.5048 12.378C21.0787 12.2986 20.6459 12.2602 20.2124 12.2634C19.7853 12.2618 19.36 12.3198 18.949 12.436C18.5883 12.5387 18.2434 12.6906 17.9241 12.8873C17.3848 13.2137 16.9409 13.6762 16.6368 14.2285H16.5836V12.5683H12.9581V24.7393H16.7334V18.7126C16.7288 18.3254 16.7548 17.9385 16.8111 17.5555C16.8587 17.2067 16.9664 16.8689 17.1294 16.5569C17.208 16.4127 17.3053 16.2794 17.4187 16.1606C17.5353 16.0398 17.6693 15.9371 17.8162 15.8559C17.9801 15.7667 18.1556 15.7009 18.3377 15.6604C18.555 15.6128 18.7769 15.5896 18.9993 15.5915H18.9993ZM7.58638 12.5691V24.7401H11.3661V12.5691H7.58638ZM9.47471 7.28543C9.18718 7.28525 8.90243 7.34176 8.63676 7.45171C8.37108 7.56166 8.12969 7.72291 7.92637 7.92622C7.72306 8.12953 7.56181 8.37092 7.45186 8.6366C7.34191 8.90227 7.2854 9.18701 7.28557 9.47454C7.28521 9.76823 7.34374 10.059 7.45772 10.3297C7.56774 10.5919 7.72709 10.8305 7.92711 11.0325C8.12606 11.2348 8.36238 11.3966 8.62298 11.5088C8.8921 11.6245 9.18196 11.6841 9.47489 11.6841C9.76781 11.6841 10.0577 11.6245 10.3268 11.5088C10.5874 11.3966 10.8237 11.2348 11.0227 11.0325C11.2227 10.8304 11.382 10.5918 11.492 10.3296C11.7176 9.79409 11.7216 9.19094 11.5031 8.65249C11.2846 8.11404 10.8614 7.68426 10.3264 7.45743C10.057 7.34333 9.76728 7.28482 9.47471 7.28543Z" fill="#FFFFFF"/>
</svg>
