<svg width="32" height="32" viewBox="0 0 32 32" fill="none" xmlns="http://www.w3.org/2000/svg">
<path d="M16 32C14.917 32.0002 13.8366 31.8913 12.7754 31.6749C10.7289 31.2557 8.78487 30.4377 7.05437 29.2674C4.48191 27.5308 2.46826 25.0855 1.25738 22.2278C0.848231 21.2598 0.535938 20.2536 0.325069 19.2241C-0.108356 17.0962 -0.108356 14.9028 0.325069 12.7749C0.74423 10.7285 1.5622 8.78469 2.73232 7.0543C4.46889 4.48186 6.91422 2.46823 9.77202 1.25737C10.74 0.848219 11.7462 0.535929 12.7757 0.325065C14.9036 -0.108355 17.097 -0.108355 19.2249 0.325065C21.2714 0.744222 23.2152 1.56219 24.9456 2.73229C27.5181 4.46885 29.5317 6.91415 30.7426 9.77192C31.1518 10.7399 31.4641 11.7461 31.6749 12.7756C32.1084 14.9035 32.1084 17.0969 31.6749 19.2247C31.2558 21.2711 30.4378 23.215 29.2677 24.9454C27.5311 27.5178 25.0858 29.5314 22.228 30.7423C21.26 31.1515 20.2538 31.4637 19.2243 31.6746C18.1632 31.8911 17.083 32.0001 16 32ZM6.82891 21.7639C7.66878 22.3058 8.58145 22.7255 9.53951 23.0104C10.5322 23.3041 11.5623 23.4527 12.5975 23.4513C14.25 23.4513 15.7948 23.1241 17.189 22.4781C17.8385 22.177 18.4539 21.8074 19.0248 21.3757C19.577 20.9572 20.0858 20.4843 20.5437 19.9643C20.9922 19.4545 21.3921 18.904 21.7383 18.3199C22.0784 17.7461 22.3671 17.1434 22.6009 16.5188C22.8298 15.9081 23.0049 15.2784 23.1241 14.6371C23.24 14.015 23.299 13.3837 23.3001 12.7509C23.3001 12.6064 23.2958 12.452 23.2864 12.2648C24.028 11.7339 24.6666 11.0723 25.1711 10.3125C24.4811 10.6133 23.7513 10.8133 23.0044 10.9064C23.7915 10.4393 24.3801 9.69985 24.6586 8.82799C23.9215 9.26503 23.1151 9.57279 22.2742 9.73796C21.9221 9.36232 21.4966 9.06293 21.0242 8.85831C20.5517 8.65369 20.0422 8.54819 19.5273 8.54835C19.0336 8.54834 18.5446 8.64565 18.0884 8.83471C17.6323 9.02378 17.2179 9.30089 16.8689 9.65021C16.5199 9.99953 16.2431 10.4142 16.0545 10.8705C15.8658 11.3269 15.769 11.8159 15.7695 12.3097C15.7663 12.5979 15.7956 12.8855 15.8567 13.1672C15.0898 13.1299 14.3292 13.0099 13.5881 12.8093C12.8674 12.6134 12.1695 12.3419 11.5059 11.9993C10.8511 11.6607 10.233 11.2555 9.6614 10.79C9.09143 10.3253 8.57028 9.80386 8.10602 9.23359C7.94219 9.51686 7.81483 9.8197 7.72696 10.1349C7.46667 11.0748 7.58311 12.0791 8.05155 12.9345C8.34278 13.4667 8.75779 13.9211 9.26154 14.2592C8.96124 14.2528 8.66297 14.2083 8.37381 14.127C8.09156 14.0484 7.81934 13.9374 7.5626 13.7962V13.8374C7.56159 14.7145 7.86781 15.5642 8.42807 16.239C8.6982 16.5656 9.02118 16.8446 9.38358 17.0644C9.75097 17.2878 10.1542 17.4461 10.5755 17.5322C10.2538 17.617 9.92222 17.6586 9.58955 17.6559C9.35063 17.6604 9.11192 17.6389 8.87768 17.5916C9.05852 18.1443 9.36334 18.6483 9.76885 19.065C10.1744 19.4818 10.6698 19.8003 11.2173 19.9962C11.5946 20.1302 11.991 20.2027 12.3913 20.2111C11.0603 21.252 9.41874 21.8167 7.729 21.815C7.42818 21.8174 7.12752 21.8003 6.82891 21.7639Z" fill="#FFFFFF"/>
</svg>
